<?xml version="1.0" standalone="no"?>
<!DOCTYPE svg PUBLIC "-//W3C//DTD SVG 20010904//EN"
 "http://www.w3.org/TR/2001/REC-SVG-20010904/DTD/svg10.dtd">
<svg version="1.0" xmlns="http://www.w3.org/2000/svg"
 width="1536.000000pt" height="1536.000000pt" viewBox="0 0 1536.000000 1536.000000"
 preserveAspectRatio="xMidYMid meet">
<metadata>
Created by potrace 1.14, written by Peter Selinger 2001-2017
</metadata>
<g transform="translate(0.000000,1536.000000) scale(0.100000,-0.100000)"
fill="#000000" stroke="none">
<path d="M9815 14380 c-3 -5 1 -10 9 -10 9 0 16 5 16 10 0 6 -4 10 -9 10 -6 0
-13 -4 -16 -10z"/>
<path d="M5695 12150 c4 -6 11 -8 16 -5 14 9 11 15 -7 15 -8 0 -12 -5 -9 -10z"/>
<path d="M4092 11448 c-40 -3 -76 -9 -79 -12 -3 -3 -12 -33 -20 -66 -19 -85
-13 -464 11 -618 15 -90 16 -115 6 -127 -11 -13 -10 -14 4 -9 9 3 16 2 16 -2
4 -78 154 -558 186 -595 8 -8 14 -19 14 -22 0 -8 59 -127 107 -218 16 -31 44
-77 61 -103 18 -26 32 -49 32 -52 0 -12 232 -313 284 -369 59 -63 66 -75 40
-75 -8 0 -12 -5 -9 -10 5 -8 11 -7 20 0 15 12 35 6 35 -11 0 -6 -4 -7 -10 -4
-5 3 -10 2 -10 -4 0 -16 18 -22 23 -9 2 8 32 -16 73 -57 38 -38 87 -83 109
-99 22 -17 42 -33 45 -36 17 -22 231 -182 286 -215 36 -22 78 -49 93 -60 14
-11 49 -31 76 -44 28 -13 57 -29 65 -36 18 -15 256 -125 342 -159 217 -85 534
-162 737 -180 30 -3 58 -11 62 -18 5 -7 9 -47 9 -88 0 -41 3 -107 6 -147 9
-103 -14 -554 -35 -722 -23 -171 -34 -192 -101 -198 -123 -9 -309 -40 -405
-68 -27 -7 -61 -15 -75 -17 -14 -2 -35 -9 -47 -16 -12 -7 -28 -12 -35 -12 -15
0 -122 -39 -238 -87 -110 -45 -295 -143 -388 -205 -41 -26 -77 -48 -82 -48 -5
0 -10 -4 -12 -8 -7 -17 -69 -53 -79 -46 -7 4 -9 3 -6 -3 4 -6 -19 -30 -51 -54
-231 -175 -493 -448 -655 -685 -18 -27 -48 -70 -65 -96 -18 -25 -54 -85 -80
-133 -26 -48 -58 -108 -72 -133 -131 -239 -234 -567 -276 -875 -28 -211 -31
-624 -4 -667 8 -13 52 -15 272 -15 277 0 300 2 468 34 337 65 696 207 990 391
70 44 84 49 98 38 15 -11 15 -11 4 3 -11 15 -8 20 25 40 75 47 343 276 443
379 230 238 427 518 559 795 76 159 88 185 104 230 8 22 24 65 36 95 55 143
118 413 146 620 1 14 6 46 10 71 l7 46 75 7 c120 10 584 7 686 -4 51 -6 155
-21 232 -33 l140 -23 12 -89 c15 -112 51 -310 64 -350 5 -16 20 -70 35 -120
33 -114 109 -306 168 -424 25 -50 46 -97 46 -106 0 -8 4 -15 9 -15 5 0 14 -13
21 -30 11 -26 125 -208 147 -235 5 -5 35 -48 67 -93 111 -159 313 -383 441
-489 17 -14 50 -44 75 -67 25 -23 70 -58 100 -79 30 -20 69 -50 86 -66 16 -16
40 -32 52 -35 12 -4 22 -12 22 -17 0 -5 4 -9 10 -9 8 0 47 -22 135 -77 66 -42
206 -113 221 -113 8 0 14 -4 14 -10 0 -5 6 -10 14 -10 8 0 45 -14 83 -31 37
-17 86 -39 108 -49 136 -61 513 -155 686 -170 188 -16 524 -13 540 6 6 8 13
47 15 87 2 39 6 110 9 157 11 176 -22 498 -71 684 -42 162 -53 200 -84 286
-165 460 -459 886 -845 1226 -256 226 -496 378 -805 510 -58 25 -114 49 -125
55 -11 5 -71 25 -133 44 -102 31 -172 50 -326 86 -27 6 -115 19 -195 28 l-146
16 -8 130 c-10 152 -2 578 13 715 15 137 42 304 50 313 4 5 20 10 36 12 16 3
93 14 171 25 78 11 177 29 220 41 43 11 87 22 98 24 70 13 393 137 472 181 24
13 50 24 58 24 9 0 23 9 32 20 10 11 24 20 33 20 8 0 43 18 78 40 35 22 69 37
75 34 7 -4 9 -4 5 0 -4 5 14 22 40 40 382 259 668 547 911 916 135 206 290
539 350 752 44 157 78 344 89 488 9 124 6 474 -5 525 l-9 40 -259 0 c-199 -1
-288 -5 -380 -19 -132 -20 -355 -72 -480 -112 -98 -31 -355 -144 -447 -196
-37 -21 -70 -38 -74 -38 -19 0 -383 -255 -414 -290 -3 -3 -25 -21 -50 -39 -25
-19 -67 -56 -94 -83 -29 -30 -54 -47 -63 -44 -8 3 -11 2 -8 -4 3 -5 -9 -26
-28 -47 -19 -21 -45 -51 -58 -67 -13 -15 -46 -51 -72 -80 -26 -28 -58 -64 -70
-79 -12 -16 -37 -47 -55 -69 -18 -23 -38 -50 -44 -62 -6 -12 -15 -23 -19 -26
-8 -6 -119 -170 -119 -177 0 -2 -11 -20 -23 -41 -51 -80 -166 -312 -207 -417
-23 -60 -46 -119 -51 -130 -16 -35 -60 -187 -85 -290 -48 -196 -55 -231 -66
-332 l-11 -101 -126 -7 c-244 -15 -806 12 -881 41 -8 3 -28 8 -45 10 -16 2
-44 7 -61 9 l-30 5 -12 108 c-31 275 -104 543 -217 797 -54 120 -74 166 -76
173 -1 4 -10 18 -20 31 -11 13 -19 28 -19 32 0 11 -98 171 -149 244 -43 62
-114 158 -122 165 -21 18 -109 144 -109 156 0 8 -4 13 -9 12 -4 -2 -69 56
-143 127 -74 72 -162 153 -194 181 -71 61 -260 198 -329 238 -28 16 -52 32
-55 35 -3 3 -40 24 -82 46 -50 26 -76 45 -73 53 3 9 -1 11 -13 8 -10 -4 -46 9
-85 29 -37 19 -74 35 -82 35 -8 0 -14 5 -12 11 1 6 -15 12 -35 14 -21 2 -45 8
-55 13 -36 19 -250 91 -313 106 -272 65 -612 95 -838 74z m3363 -3248 c88 -3
309 -5 492 -4 l332 2 -4 -26 c-3 -15 -8 -43 -11 -62 -12 -61 -15 -938 -4 -945
6 -3 10 -13 10 -22 0 -12 -6 -14 -27 -8 -15 3 -31 12 -35 18 -6 9 -10 9 -16 0
-6 -10 -34 -10 -122 -2 -63 5 -249 10 -412 11 -242 1 -298 4 -298 15 0 7 -5
13 -11 13 -5 0 -7 -4 -4 -10 8 -12 -25 -20 -100 -23 -58 -2 -60 -1 -58 23 1
14 2 236 3 493 1 460 0 469 -20 487 -20 17 -29 57 -10 45 6 -3 10 -1 10 6 0 8
17 10 63 4 34 -4 134 -11 222 -15z"/>
<path d="M8125 8170 c-5 -8 53 -6 61 3 3 3 -8 5 -25 5 -18 -1 -34 -4 -36 -8z"/>
<path d="M7203 8096 c1 -11 9 -21 17 -23 10 -3 11 -2 4 4 -6 4 -14 15 -17 23
-5 11 -6 9 -4 -4z"/>
<path d="M7213 7475 c0 -33 2 -45 4 -27 2 18 2 45 0 60 -2 15 -4 0 -4 -33z"/>
<path d="M7210 7325 c0 -49 2 -86 5 -83 7 7 8 158 1 165 -3 4 -6 -33 -6 -82z"/>
<path d="M7370 7190 c0 -5 5 -10 11 -10 5 0 7 5 4 10 -3 6 -8 10 -11 10 -2 0
-4 -4 -4 -10z"/>
<path d="M7270 7180 c0 -5 7 -10 16 -10 8 0 12 5 9 10 -3 6 -10 10 -16 10 -5
0 -9 -4 -9 -10z"/>
<path d="M7645 11449 c-252 -32 -457 -155 -586 -351 -87 -133 -126 -249 -136
-408 -17 -287 136 -580 382 -729 66 -40 215 -98 271 -106 267 -36 480 17 658
163 300 246 386 672 204 1012 -51 96 -130 194 -199 247 -130 100 -229 143
-386 169 -97 15 -106 15 -208 3z"/>
<path d="M8050 11410 c0 -5 5 -10 11 -10 5 0 7 5 4 10 -3 6 -8 10 -11 10 -2 0
-4 -4 -4 -10z"/>
<path d="M8460 11038 c0 -7 5 -20 10 -28 8 -11 9 -9 8 13 -2 26 -18 40 -18 15z"/>
<path d="M8496 10971 c-3 -5 1 -11 9 -15 8 -3 15 -1 15 4 0 13 -18 22 -24 11z"/>
<path d="M5875 10950 c3 -5 8 -10 11 -10 2 0 4 5 4 10 0 6 -5 10 -11 10 -5 0
-7 -4 -4 -10z"/>
<path d="M5970 10886 c0 -2 7 -6 15 -10 8 -3 15 -1 15 4 0 6 -7 10 -15 10 -8
0 -15 -2 -15 -4z"/>
<path d="M11476 10758 c-3 -13 -5 -34 -5 -48 1 -15 5 -7 10 19 9 47 6 68 -5
29z"/>
<path d="M9240 10689 c0 -5 5 -7 10 -4 6 3 10 8 10 11 0 2 -4 4 -10 4 -5 0
-10 -5 -10 -11z"/>
<path d="M4005 10580 c-3 -5 -1 -10 4 -10 6 0 11 5 11 10 0 6 -2 10 -4 10 -3
0 -8 -4 -11 -10z"/>
<path d="M6440 10470 c8 -5 20 -10 25 -10 6 0 3 5 -5 10 -8 5 -19 10 -25 10
-5 0 -3 -5 5 -10z"/>
<path d="M8801 10184 c0 -11 3 -14 6 -6 3 7 2 16 -1 19 -3 4 -6 -2 -5 -13z"/>
<path d="M11322 10156 c7 -8 15 -12 17 -11 5 6 -10 25 -20 25 -5 0 -4 -6 3
-14z"/>
<path d="M6701 10094 c0 -11 3 -14 6 -6 3 7 2 16 -1 19 -3 4 -6 -2 -5 -13z"/>
<path d="M8080 9900 c-13 -8 -12 -10 3 -10 9 0 17 5 17 10 0 12 -1 12 -20 0z"/>
<path d="M7375 9890 c-3 -5 1 -10 9 -10 9 0 16 5 16 10 0 6 -4 10 -9 10 -6 0
-13 -4 -16 -10z"/>
<path d="M10957 9513 c-4 -3 -7 -13 -7 -22 1 -13 3 -13 11 2 11 19 8 33 -4 20z"/>
<path d="M13865 9510 c3 -5 10 -10 16 -10 5 0 9 5 9 10 0 6 -7 10 -16 10 -8 0
-12 -4 -9 -10z"/>
<path d="M8138 8713 c12 -2 30 -2 40 0 9 3 -1 5 -23 4 -22 0 -30 -2 -17 -4z"/>
<path d="M9900 8579 c0 -5 5 -7 10 -4 6 3 10 8 10 11 0 2 -4 4 -10 4 -5 0 -10
-5 -10 -11z"/>
<path d="M4605 8475 c-241 -53 -449 -214 -559 -434 -59 -116 -79 -205 -79
-351 -1 -185 33 -303 130 -451 88 -135 188 -224 321 -286 230 -107 477 -103
707 12 156 78 281 206 359 366 18 39 36 65 38 57 3 -7 5 3 5 22 0 19 7 69 17
110 43 188 5 410 -103 595 -75 130 -259 280 -401 328 -138 46 -312 59 -435 32z"/>
<path d="M10552 8480 c-245 -44 -467 -208 -576 -425 -54 -106 -77 -195 -83
-321 -17 -335 134 -605 430 -768 67 -36 189 -74 277 -84 99 -12 255 1 330 29
52 19 62 20 77 8 16 -12 17 -12 6 1 -10 14 -1 22 65 55 58 29 100 61 168 129
156 155 223 297 249 526 12 102 -27 301 -80 412 -15 32 -19 49 -11 52 6 2 4 5
-5 5 -9 1 -29 20 -44 44 -45 67 -141 161 -216 212 -135 91 -244 125 -414 130
-66 2 -144 0 -173 -5z"/>
<path d="M4424 8445 c-25 -19 -14 -19 22 0 16 8 22 15 13 15 -8 0 -24 -7 -35
-15z"/>
<path d="M10990 8456 c0 -2 7 -7 16 -10 8 -3 12 -2 9 4 -6 10 -25 14 -25 6z"/>
<path d="M6672 8140 c0 -14 2 -19 5 -12 2 6 2 18 0 25 -3 6 -5 1 -5 -13z"/>
<path d="M9936 8036 c-23 -54 -20 -68 4 -21 11 22 19 44 17 50 -2 5 -12 -7
-21 -29z"/>
<path d="M5507 8053 c-4 -3 -7 -11 -7 -17 0 -6 5 -5 12 2 6 6 9 14 7 17 -3 3
-9 2 -12 -2z"/>
<path d="M4001 8014 c0 -11 3 -14 6 -6 3 7 2 16 -1 19 -3 4 -6 -2 -5 -13z"/>
<path d="M6665 8019 c-9 -14 -2 -20 14 -10 8 6 9 11 3 15 -6 3 -14 1 -17 -5z"/>
<path d="M5518 8004 c-2 -5 1 -20 8 -34 8 -14 13 -18 13 -10 -1 24 -15 55 -21
44z"/>
<path d="M3975 7950 c-3 -5 -1 -10 4 -10 6 0 11 5 11 10 0 6 -2 10 -4 10 -3 0
-8 -4 -11 -10z"/>
<path d="M6681 7944 c0 -11 3 -14 6 -6 3 7 2 16 -1 19 -3 4 -6 -2 -5 -13z"/>
<path d="M4003 7345 c0 -8 4 -15 9 -15 4 0 8 7 8 15 0 8 -4 15 -8 15 -5 0 -9
-7 -9 -15z"/>
<path d="M10130 7071 c0 -5 5 -13 10 -16 6 -3 10 -2 10 4 0 5 -4 13 -10 16 -5
3 -10 2 -10 -4z"/>
<path d="M11225 7060 c-3 -5 -1 -10 4 -10 6 0 11 5 11 10 0 6 -2 10 -4 10 -3
0 -8 -4 -11 -10z"/>
<path d="M9398 6993 c7 -3 16 -2 19 1 4 3 -2 6 -13 5 -11 0 -14 -3 -6 -6z"/>
<path d="M4420 6920 c0 -5 7 -10 16 -10 8 0 12 5 9 10 -3 6 -10 10 -16 10 -5
0 -9 -4 -9 -10z"/>
<path d="M5080 6919 c0 -5 5 -7 10 -4 6 3 10 8 10 11 0 2 -4 4 -10 4 -5 0 -10
-5 -10 -11z"/>
<path d="M10375 6920 c-3 -5 -1 -10 4 -10 6 0 11 5 11 10 0 6 -2 10 -4 10 -3
0 -8 -4 -11 -10z"/>
<path d="M4995 6890 c-3 -5 -1 -10 4 -10 6 0 11 5 11 10 0 6 -2 10 -4 10 -3 0
-8 -4 -11 -10z"/>
<path d="M10685 6840 c-8 -13 5 -13 25 0 13 8 13 10 -2 10 -9 0 -20 -4 -23
-10z"/>
<path d="M7268 6643 c7 -3 16 -2 19 1 4 3 -2 6 -13 5 -11 0 -14 -3 -6 -6z"/>
<path d="M7353 6643 c9 -2 25 -2 35 0 9 3 1 5 -18 5 -19 0 -27 -2 -17 -5z"/>
<path d="M7538 6643 c7 -3 16 -2 19 1 4 3 -2 6 -13 5 -11 0 -14 -3 -6 -6z"/>
<path d="M7588 6643 c6 -2 18 -2 25 0 6 3 1 5 -13 5 -14 0 -19 -2 -12 -5z"/>
<path d="M7668 6643 c6 -2 18 -2 25 0 6 3 1 5 -13 5 -14 0 -19 -2 -12 -5z"/>
<path d="M5240 6609 c0 -5 5 -7 10 -4 6 3 10 8 10 11 0 2 -4 4 -10 4 -5 0 -10
-5 -10 -11z"/>
<path d="M4909 6343 c-13 -16 -12 -17 4 -4 9 7 17 15 17 17 0 8 -8 3 -21 -13z"/>
<path d="M10516 6345 c4 -8 11 -15 16 -15 6 0 5 6 -2 15 -7 8 -14 15 -16 15
-2 0 -1 -7 2 -15z"/>
<path d="M10785 6080 c3 -5 8 -10 11 -10 2 0 4 5 4 10 0 6 -5 10 -11 10 -5 0
-7 -4 -4 -10z"/>
<path d="M8370 6050 c0 -5 5 -10 11 -10 5 0 7 5 4 10 -3 6 -8 10 -11 10 -2 0
-4 -4 -4 -10z"/>
<path d="M8380 6010 c0 -5 5 -10 10 -10 6 0 10 5 10 10 0 6 -4 10 -10 10 -5 0
-10 -4 -10 -10z"/>
<path d="M10985 5831 c-3 -5 -1 -12 5 -16 5 -3 10 1 10 9 0 18 -6 21 -15 7z"/>
<path d="M7560 5506 c-132 -25 -239 -76 -348 -167 -111 -92 -208 -237 -252
-376 -7 -23 -16 -40 -20 -38 -5 3 -11 -2 -14 -11 -9 -24 -7 -31 5 -14 7 11 8
-1 2 -40 -15 -102 -6 -257 21 -364 88 -342 415 -587 781 -586 492 3 861 446
784 942 -26 166 -97 306 -218 429 -122 123 -242 190 -404 223 -88 18 -243 19
-337 2z"/>
<path d="M4186 5333 c-6 -14 -5 -15 5 -6 7 7 10 15 7 18 -3 3 -9 -2 -12 -12z"/>
<path d="M6705 5281 c-3 -5 -1 -12 5 -16 5 -3 10 1 10 9 0 18 -6 21 -15 7z"/>
<path d="M6967 5063 c-4 -3 -7 -13 -7 -22 1 -13 3 -13 11 2 11 19 8 33 -4 20z"/>
<path d="M8506 5024 c-4 -9 -4 -19 -1 -22 2 -3 7 3 11 12 4 9 4 19 1 22 -2 3
-7 -3 -11 -12z"/>
<path d="M4002 4760 c0 -14 2 -19 5 -12 2 6 2 18 0 25 -3 6 -5 1 -5 -13z"/>
<path d="M11470 4630 c0 -11 2 -20 4 -20 2 0 6 9 9 20 3 11 1 20 -4 20 -5 0
-9 -9 -9 -20z"/>
<path d="M1120 4389 c0 -5 5 -7 10 -4 6 3 10 8 10 11 0 2 -4 4 -10 4 -5 0 -10
-5 -10 -11z"/>
<path d="M7395 3950 c-3 -5 -1 -10 4 -10 6 0 11 5 11 10 0 6 -2 10 -4 10 -3 0
-8 -4 -11 -10z"/>
<path d="M7738 3883 c7 -3 16 -2 19 1 4 3 -2 6 -13 5 -11 0 -14 -3 -6 -6z"/>
</g>
</svg>
